<svg width="65" height="170" viewBox="0 0 65 170" fill="none" xmlns="http://www.w3.org/2000/svg">
<g clip-path="url(#clip0_60_2325)">
<path d="M44.0254 169.949L65 169.949L54.5127 159.462L44.0254 169.949Z" fill="#008F42"/>
<path d="M44.0254 134.41L65 134.41L54.5127 123.923L44.0254 134.41Z" fill="#008F42"/>
<path d="M44.0254 98.8564L65 98.8564L54.5127 88.3691L44.0254 98.8564Z" fill="#008F42"/>
<path d="M44.0254 63.3184L65 63.3184L54.5127 52.8311L44.0254 63.3184Z" fill="#008F42"/>
<path d="M44.0254 27.7793L65 27.7793L54.5127 17.2768L44.0254 27.7793Z" fill="#008F42"/>
<path d="M0.000263214 152.673L20.9749 152.673L10.4876 142.186L0.000263214 152.673Z" fill="#008F42"/>
<path d="M1.90735e-05 117.119L20.9746 117.119L10.4873 106.632L1.90735e-05 117.119Z" fill="#008F42"/>
<path d="M1.90735e-05 81.5801L20.9746 81.5801L10.4873 71.0928L1.90735e-05 81.5801Z" fill="#008F42"/>
<path d="M1.90735e-05 46.042L20.9746 46.042L10.4873 35.5547L1.90735e-05 46.042Z" fill="#008F42"/>
<path d="M1.90735e-05 10.4883L20.9746 10.4883L10.4873 0.000989877L1.90735e-05 10.4883Z" fill="#008F42"/>
</g>
<defs>
<clipPath id="clip0_60_2325">
<rect width="65" height="169.949" fill="white" transform="translate(65 169.949) rotate(180)"/>
</clipPath>
</defs>
</svg>
