<svg width="32" height="32" viewBox="0 0 32 32" fill="none" xmlns="http://www.w3.org/2000/svg">
<path fill-rule="evenodd" clip-rule="evenodd" d="M12.6667 16.7379C16.3395 16.7379 19.2835 13.7558 19.2835 10.0355C19.2835 6.31518 16.3395 3.33301 12.6667 3.33301C8.99399 3.33301 6.04991 6.31518 6.04991 10.0355C6.04991 13.7558 8.99399 16.7379 12.6667 16.7379ZM12.6667 20.0199C7.27237 20.0199 2.66675 20.8825 2.66675 24.3282C2.66675 27.7727 7.24435 28.6663 12.6667 28.6663C18.0598 28.6663 22.6667 27.8038 22.6667 24.3579C22.6667 20.9122 18.0891 20.0199 12.6667 20.0199ZM26.5306 12.7835H28.1347C28.795 12.7835 29.3334 13.3294 29.3334 13.999C29.3334 14.6685 28.795 15.2145 28.1347 15.2145H26.5306V16.7842C26.5306 17.4538 25.9937 17.9997 25.3321 17.9997C24.6718 17.9997 24.1334 17.4538 24.1334 16.7842V15.2145H22.5321C21.8703 15.2145 21.3334 14.6685 21.3334 13.999C21.3334 13.3294 21.8703 12.7835 22.5321 12.7835H24.1334V11.2152C24.1334 10.5456 24.6718 9.99967 25.3321 9.99967C25.9937 9.99967 26.5306 10.5456 26.5306 11.2152V12.7835Z" fill="white"/>
</svg>
