<svg width="32" height="32" viewBox="0 0 32 32" fill="none" xmlns="http://www.w3.org/2000/svg">
<path d="M28.5805 3.44297C27.9136 2.75846 26.9265 2.50345 26.0061 2.77187L4.54396 9.01302C3.57289 9.28281 2.88461 10.0572 2.6992 11.0411C2.50979 12.0423 3.1714 13.3134 4.03575 13.8449L10.7465 17.9694C11.4348 18.3922 12.3231 18.2862 12.8927 17.7117L20.5772 9.97939C20.964 9.57674 21.6042 9.57674 21.9912 9.97939C22.378 10.3686 22.378 10.9995 21.9912 11.4021L14.2933 19.1358C13.7224 19.7089 13.6157 20.6014 14.0358 21.2939L18.1362 28.0721C18.6164 28.8773 19.4434 29.3337 20.3504 29.3337C20.4572 29.3337 20.5772 29.3337 20.684 29.3202C21.7244 29.1861 22.5513 28.4747 22.8581 27.4681L29.2208 6.03338C29.5009 5.1207 29.2474 4.12749 28.5805 3.44297Z" fill="white"/>
</svg>
